<?xml version="1.0" encoding="UTF-8"?>
<svg width="60px" height="56px" viewBox="0 0 60 56" version="1.1" xmlns="http://www.w3.org/2000/svg" xmlns:xlink="http://www.w3.org/1999/xlink">
    <title>Flix IPTV</title>
    <g id="Page-1" stroke="none" stroke-width="1" fill="none" fill-rule="evenodd">
        <g id="Dark" transform="translate(-693.000000, -573.000000)" fill="#FF0000">
            <path d="M728.307262,573 C732.135336,578.186153 730.362948,582.317837 722.990096,585.39505 C711.930818,590.01087 700.835724,584.594037 700.107671,596.77041 C700.074578,597.323881 700.0402,597.873292 700.005508,598.418163 L699.953357,599.232006 C699.240727,610.306347 698.60035,619.372218 706.398105,622.302209 C714.766428,625.446589 742.418791,625.078227 744.744485,617.405437 C745.865309,613.707681 748.120888,604.665246 745.551817,594.185131 C743.839102,587.198387 741.589991,583.333986 738.804483,582.591929 C746.781324,583.464795 751.299484,587.639237 752.358962,595.115257 C753.41844,602.591276 753.164626,610.338695 751.597519,618.357514 C750.617812,623.711427 746.773736,626.792857 740.065293,627.601806 C730.002628,628.815229 697.767035,632.24174 695.02896,620.307696 C692.290886,608.373653 689.965287,582.885931 704.705538,582.885931 C719.445789,582.885931 725.768703,578.419698 728.307262,573 Z M715.402968,598.920208 L715.402968,602.497209 L709.612792,602.497209 L709.612792,604.086987 L714.205001,604.086987 L714.205001,607.86271 L709.612792,607.86271 L709.612792,612.632044 L706.218551,612.632044 L706.218551,598.920208 L715.402968,598.920208 Z M725.985014,602.894653 L725.985014,612.632044 L722.191451,612.632044 L722.191451,602.894653 L725.985014,602.894653 Z M730.177901,602.894653 L731.276037,604.679775 L732.374174,602.894653 L736.167738,602.894653 L733.172819,607.763349 L736.167738,612.632044 L732.374174,612.632044 L731.276037,610.846922 L730.177901,612.632044 L726.384337,612.632044 L729.379256,607.763349 L726.384337,602.894653 L730.177901,602.894653 Z M719.396193,598.522763 L719.396193,608.061432 C719.396193,608.610188 719.84315,609.055043 720.3945,609.055043 L721.392806,609.055043 L721.99179,612.632044 L719.196532,612.632044 C717.321945,612.632044 715.802291,611.119537 715.802291,609.253766 L715.802291,599.516375 L719.396193,598.522763 Z M735.612954,599.540221 L735.612954,602.099764 L734.612954,602.099764 L734.612954,599.540221 L735.612954,599.540221 Z M737.148691,599.539274 C737.436484,599.539274 737.652036,599.607391 737.795348,599.743624 C737.938659,599.879858 738.010315,600.073729 738.010315,600.325236 C738.010315,600.583731 737.932225,600.785752 737.776044,600.9313 C737.619864,601.076849 737.381499,601.149623 737.060949,601.149623 L736.62575,601.149623 L736.62575,602.099764 L735.8273,602.099764 L735.8273,599.539274 L737.148691,599.539274 Z M740.661871,599.539274 L740.661871,600.171537 L739.851137,600.171537 L739.851137,602.099764 L739.056197,602.099764 L739.056197,600.171537 L738.245463,600.171537 L738.245463,599.539274 L740.661871,599.539274 Z M741.598953,599.539274 L742.178048,601.381919 L742.74837,599.539274 L743.555594,599.539274 L742.600964,602.099764 L741.73934,602.099764 L740.767161,599.539274 L741.598953,599.539274 Z M724.088233,597.926597 C725.135796,597.926597 725.985014,598.771821 725.985014,599.814458 C725.985014,600.857095 725.135796,601.70232 724.088233,601.70232 C723.040669,601.70232 722.191451,600.857095 722.191451,599.814458 C722.191451,598.771821 723.040669,597.926597 724.088233,597.926597 Z M736.852124,600.059756 L736.62575,600.059756 L736.62575,600.630888 L736.820537,600.630888 C736.973792,600.630888 737.081422,600.604398 737.143426,600.551419 C737.205431,600.498439 737.236433,600.430614 737.236433,600.347942 C737.236433,600.267599 737.209525,600.199482 737.15571,600.143592 C737.101895,600.087701 737.0007,600.059756 736.852124,600.059756 Z M735.612954,598.545663 L735.612954,599.228189 L734.612954,599.228189 L734.612954,598.545663 L735.612954,598.545663 Z" id="Flix-IPTV"></path>
        </g>
    </g>
</svg>