<?xml version="1.0" encoding="UTF-8"?>
<svg width="56px" height="60px" viewBox="0 0 56 60" version="1.1" xmlns="http://www.w3.org/2000/svg" xmlns:xlink="http://www.w3.org/1999/xlink">
    <title>IPTV Smarters</title>
    <g id="Page-1" stroke="none" stroke-width="1" fill="none" fill-rule="evenodd">
        <g id="Dark" transform="translate(-817.000000, -205.000000)" fill="#FF0000">
            <path d="M871.939268,245.759856 C871.610797,254.719156 869.972606,260.320097 867.024697,262.562681 C864.076788,264.805264 860.196705,265.500293 855.38445,264.647766 C857.287412,264.669207 859.848052,263.974178 863.06637,262.562681 C866.284688,261.151183 868.287905,255.900085 869.076019,246.809386 L869.076019,246.809386 Z M827.814603,250.985961 C828.140378,251.098793 828.40148,251.277223 828.597909,251.521252 C828.794337,251.76528 828.907124,252.053853 828.936268,252.38697 L827.614264,252.50263 C827.594762,252.279717 827.511024,252.112901 827.36305,252.00218 C827.215076,251.89146 827.023997,251.846344 826.789814,251.866832 C826.553112,251.887541 826.37069,251.95587 826.242547,252.071819 C826.114404,252.187768 826.057345,252.325891 826.071369,252.486187 C826.08364,252.626447 826.170304,252.746948 826.331361,252.847691 C826.492417,252.948433 826.768376,253.042909 827.159237,253.131117 C827.550098,253.219326 827.873792,253.322876 828.130319,253.441765 C828.754393,253.730404 829.092615,254.174027 829.144986,254.772635 C829.18684,255.25102 829.038405,255.642577 828.699684,255.947307 C828.360962,256.252036 827.875579,256.432049 827.243535,256.487346 C826.797831,256.52634 826.387348,256.482121 826.012086,256.354691 C825.636823,256.22726 825.345804,256.03315 825.139028,255.77236 C824.932252,255.51157 824.813087,255.200841 824.781533,254.840174 L826.111091,254.723852 C826.136729,255.016895 826.231801,255.226255 826.396308,255.351934 C826.560815,255.477613 826.814299,255.525471 827.156761,255.49551 C827.375836,255.476343 827.544847,255.414235 827.663794,255.309186 C827.78274,255.204137 827.834764,255.066455 827.819863,254.896139 C827.80299,254.703283 827.721224,254.559008 827.574565,254.463315 C827.427906,254.367622 827.177047,254.27726 826.821987,254.192229 C826.466927,254.107198 826.175148,254.020416 825.946651,253.931883 C825.203569,253.646085 824.805405,253.198873 824.752157,252.590246 C824.725642,252.287185 824.791014,252.01205 824.94827,251.76484 C825.105527,251.517629 825.340931,251.31532 825.654481,251.157912 C825.968031,251.000504 826.327514,250.904065 826.732928,250.868596 C827.12827,250.834008 827.488829,250.87313 827.814603,250.985961 Z M835.411846,250.185003 L835.89042,255.655127 L834.560862,255.771448 L834.449107,254.494084 L834.348761,251.868009 L833.359727,255.876534 L832.483428,255.9532 L830.80924,252.173891 L831.166761,254.781252 L831.278516,256.058616 L829.952735,256.174607 L829.474161,250.704483 L831.215429,250.552142 L832.775967,254.250537 L833.666801,250.337675 L835.411846,250.185003 Z M839.090794,249.863137 L841.601476,255.155474 L840.177489,255.280057 L839.767027,254.286255 L837.950216,254.445205 L837.722339,255.494855 L836.305907,255.618777 L837.844333,249.972188 L839.090794,249.863137 Z M845.255136,249.759184 C845.647978,250.015052 845.867408,250.405973 845.913425,250.931946 C845.946732,251.312651 845.896911,251.635009 845.76396,251.899022 C845.631009,252.163034 845.406391,252.387114 845.090106,252.571261 L846.431302,254.676134 L846.436232,254.732488 L845.016023,254.85674 L843.876347,253.010594 L843.158688,253.073381 L843.327635,255.004455 L842.001854,255.120446 L841.52328,249.650322 L843.687589,249.460969 C844.339778,249.40391 844.862293,249.503315 845.255136,249.759184 Z M850.886844,248.831116 L850.975919,249.849251 L849.325303,249.993661 L849.714801,254.44565 L848.389021,254.561641 L847.999522,250.109652 L846.379123,250.251418 L846.290048,249.233284 L850.886844,248.831116 Z M855.241902,248.450098 L855.330977,249.468232 L852.860719,249.684352 L852.961627,250.837737 L855.046615,250.655324 L855.132404,251.635889 L853.047415,251.818301 L853.161471,253.121964 L855.624175,252.906505 L855.712921,253.920883 L851.924436,254.252332 L851.445862,248.782209 L855.241902,248.450098 Z M859.506336,248.512365 C859.899178,248.768234 860.118608,249.159155 860.164625,249.685128 C860.197932,250.065833 860.14811,250.388191 860.01516,250.652203 C859.882209,250.916216 859.657591,251.140296 859.341306,251.324443 L860.682502,253.429315 L860.687432,253.485669 L859.267223,253.609922 L858.127547,251.763776 L857.409888,251.826563 L857.578835,253.757637 L856.253054,253.873627 L855.77448,248.403504 L857.938789,248.214151 C858.590978,248.157092 859.113493,248.256497 859.506336,248.512365 Z M838.601669,251.450499 L838.178422,253.399312 L839.360671,253.295879 L838.601669,251.450499 Z M864.00351,247.819842 C864.329285,247.932674 864.590387,248.111104 864.786816,248.355133 C864.983245,248.599161 865.096031,248.887734 865.125175,249.22085 L863.803171,249.336511 C863.783669,249.113598 863.699931,248.946782 863.551957,248.836061 C863.403983,248.725341 863.212904,248.680225 862.978721,248.700713 C862.742019,248.721422 862.559597,248.789751 862.431454,248.9057 C862.303311,249.021649 862.246252,249.159772 862.260276,249.320068 C862.272547,249.460328 862.359211,249.580829 862.520268,249.681571 C862.681324,249.782314 862.957283,249.87679 863.348144,249.964998 C863.739005,250.053207 864.062699,250.156756 864.319226,250.275646 C864.9433,250.564285 865.281522,251.007908 865.333893,251.606516 C865.375747,252.084901 865.227312,252.476458 864.888591,252.781188 C864.549869,253.085917 864.064486,253.26593 863.432442,253.321226 C862.986738,253.36022 862.576255,253.316002 862.200993,253.188572 C861.82573,253.061141 861.534711,252.867031 861.327935,252.606241 C861.121159,252.345451 861.001994,252.034722 860.97044,251.674054 L862.299998,251.557733 C862.325636,251.850776 862.420708,252.060136 862.585215,252.185815 C862.749722,252.311494 863.003206,252.359352 863.345668,252.329391 C863.564743,252.310224 863.733754,252.248116 863.852701,252.143067 C863.971647,252.038018 864.023671,251.900336 864.00877,251.73002 C863.991897,251.537163 863.910131,251.392889 863.763472,251.297196 C863.616813,251.201503 863.365954,251.111141 863.010894,251.02611 C862.655834,250.941078 862.364055,250.854296 862.135558,250.765764 C861.392476,250.479966 860.994312,250.032754 860.941064,249.424127 C860.914549,249.121066 860.979921,248.845931 861.137178,248.59872 C861.294434,248.35151 861.529838,248.149201 861.843388,247.991793 C862.156938,247.834385 862.516421,247.737946 862.921835,247.702477 C863.317177,247.667889 863.677736,247.707011 864.00351,247.819842 Z M843.776664,250.479104 L842.938136,250.552465 L843.069613,252.055247 L843.908141,251.981885 C844.159951,251.959854 844.343686,251.87753 844.459346,251.734911 C844.575006,251.592292 844.622537,251.403265 844.601939,251.167829 C844.581341,250.932394 844.500969,250.753294 844.360822,250.630532 C844.220676,250.50777 844.025957,250.457294 843.776664,250.479104 Z M858.027864,249.232285 L857.189336,249.305647 L857.320813,250.808428 L858.159341,250.735067 C858.411151,250.713036 858.594886,250.630711 858.710546,250.488093 C858.826206,250.345474 858.873737,250.156447 858.853139,249.921011 C858.832541,249.685575 858.752169,249.506476 858.612022,249.383714 C858.471876,249.260951 858.277157,249.210475 858.027864,249.232285 Z M823.54876,231.471444 L825.144006,249.70519 L823.595373,249.840678 L822.000127,231.606932 L823.54876,231.471444 Z M839.407698,231.547775 C840.596195,232.419667 841.264582,233.703014 841.412858,235.397817 C841.562595,237.109318 841.147284,238.476961 840.166927,239.500746 C839.186569,240.524531 837.68915,241.124546 835.674668,241.30079 L831.016179,241.708355 L831.665891,249.134599 L830.117258,249.270087 L828.522012,231.036341 L834.766905,230.489984 C836.672269,230.323286 838.2192,230.675883 839.407698,231.547775 Z M856.838072,228.559007 L856.953114,229.87394 L850.670449,230.423602 L852.150653,247.342415 L850.60202,247.477902 L849.121816,230.55909 L842.851741,231.107651 L842.736699,229.792717 L856.838072,228.559007 Z M873.004289,227.144646 L867.775477,245.97542 L866.289797,246.1054 L857.870494,228.468681 L859.557622,228.321077 L866.722108,243.796151 L866.856797,244.175558 L866.936147,243.777426 L871.30457,227.293352 L873.004289,227.144646 Z M834.982671,231.796105 L830.185686,232.215787 L830.902232,240.405945 L835.598493,239.995075 C837.100961,239.863626 838.215654,239.408564 838.942574,238.629888 C839.669493,237.851212 839.97744,236.827367 839.866416,235.558352 C839.756122,234.297685 839.275884,233.328075 838.425703,232.64952 C837.575521,231.970966 836.427844,231.686494 834.982671,231.796105 Z M832.491242,205 C833.634863,205 834.561951,205.92213 834.561951,207.059635 C834.561951,207.662627 834.301434,208.205097 833.886244,208.581766 L841.070773,220.610888 C841.688835,220.544409 842.293889,220.479343 842.886246,220.415878 C843.275892,220.110611 843.516166,219.77326 843.607822,219.404468 C843.744779,218.8534 844.681334,215.281331 846.417487,208.68826 C846.05195,208.369936 845.821432,207.902471 845.821432,207.381453 C845.821432,206.421683 846.603662,205.643636 847.568593,205.643636 C848.533523,205.643636 849.315753,206.421683 849.315753,207.381453 C849.315753,208.341223 848.533523,209.11927 847.568593,209.11927 L847.688,209.114 L844.806962,220.211283 C863.111041,218.276393 868.430623,218.246298 871.31106,226.60281 L868.603179,227.662014 C867.778806,223.179758 863.927398,221.160653 857.048954,221.604698 C850.170511,222.048743 840.681685,223.048289 828.582477,224.603337 C821.97107,225.417369 818.121048,228.010754 817.032412,232.383491 C816.446513,226.316585 823.804001,222.462798 839.104876,220.82213 L839.306683,220.800946 C839.23062,220.439999 839.028548,220.042402 838.700465,219.608155 L832.751447,209.103165 C832.666215,209.113794 832.579371,209.11927 832.491242,209.11927 C831.347621,209.11927 830.420533,208.19714 830.420533,207.059635 C830.420533,205.92213 831.347621,205 832.491242,205 Z" id="IPTV-Smarters"></path>
        </g>
    </g>
</svg>