<?xml version="1.0" encoding="UTF-8"?>
<svg width="60px" height="60px" viewBox="0 0 60 60" version="1.1" xmlns="http://www.w3.org/2000/svg" xmlns:xlink="http://www.w3.org/1999/xlink">
    <title>Kodi</title>
    <g id="Page-1" stroke="none" stroke-width="1" fill="none" fill-rule="evenodd">
        <g id="Dark" transform="translate(-205.000000, -327.000000)" fill="#FF0000">
            <path d="M236.040601,365.768283 L245.46236,375.176797 C246.005331,375.719005 246.005985,376.597896 245.463822,377.140909 L236.02808,386.591454 C235.495214,387.125155 234.636024,387.13612 234.089762,386.6234 L234.058276,386.592916 L234.058276,386.592916 L224.741916,377.289653 C224.203225,376.751719 224.197716,375.881269 224.729555,375.336579 L234.059899,365.780784 C234.586771,365.241181 235.445785,365.220648 235.997739,365.727253 L236.040601,365.768283 L236.040601,365.768283 Z M255.204409,346.60969 L264.594047,356.018677 C265.135412,356.561157 265.135304,357.438737 264.593805,357.981085 L254.020376,368.571081 C253.48751,369.104782 252.62832,369.115747 252.082058,368.603026 L252.050573,368.572543 L252.050573,368.572543 L242.628964,359.164179 C242.085429,358.621397 242.085427,357.741384 242.628959,357.198599 L253.234358,346.607992 C253.768015,346.075079 254.62722,346.065385 255.172721,346.578913 L255.204409,346.60969 L255.204409,346.60969 Z M214.723227,350.074357 L214.723227,363.929602 C214.723227,364.697207 214.100084,365.319473 213.331399,365.319473 C212.962263,365.319473 212.608246,365.173041 212.347228,364.912389 L205.407872,357.982789 C204.873971,357.45012 204.864263,356.592127 205.378517,356.047396 L205.40778,356.017368 L205.40778,356.017368 L212.347474,349.091324 C212.891153,348.548681 213.772409,348.548901 214.315816,349.091815 C214.576684,349.352447 214.723227,349.705861 214.723227,350.074357 Z M236.043409,327.408799 L246.723527,338.111161 C247.259036,338.647786 247.265547,339.513822 246.738166,340.058415 L226.162458,361.305614 C225.6281,361.857411 224.746967,361.872157 224.194393,361.33855 C223.923223,361.076687 223.770107,360.716127 223.770107,360.339432 L223.770107,338.266436 C223.770107,337.897695 223.916844,337.544066 224.178018,337.283394 L234.073608,327.40683 C234.607406,326.874058 235.466614,326.864591 236.011978,327.378263 L236.043409,327.408799 L236.043409,327.408799 Z" id="Kodi"></path>
        </g>
    </g>
</svg>