<?xml version="1.0" encoding="UTF-8"?>
<svg width="60px" height="10px" viewBox="0 0 60 10" version="1.1" xmlns="http://www.w3.org/2000/svg" xmlns:xlink="http://www.w3.org/1999/xlink">
    <title>Net IPTV</title>
    <g id="Page-1" stroke="none" stroke-width="1" fill="none" fill-rule="evenodd">
        <g id="Dark" transform="translate(-327.000000, -352.000000)" fill="#FF0000">
            <path d="M329.210526,352 L333.189,359 L333.189474,352 L335.147368,352 L335.147368,362 L332.936842,362 L328.957,355 L328.957895,362 L327,362 L327,352 L329.210526,352 Z M342.789474,352 L342.789474,353.741573 L339,353.741 L339,356.157 L342.789474,356.157303 L342.789474,357.898876 L339,357.898 L339,360.258 L342.789474,360.258427 L342.789474,362 L337.042105,362 L337.042105,352 L342.789474,352 Z M352.326316,352 L352.326316,353.741573 L349.484,353.741 L349.484211,362 L347.526316,362 L347.526,353.741 L344.684211,353.741573 L344.684211,352 L352.326316,352 Z M358.073684,352 L358.073684,362 L356.115789,362 L356.115789,352 L358.073684,352 Z M363.86097,352 C365.582981,352 366.978947,353.395966 366.978947,355.117978 C366.978947,356.839989 365.582981,358.235955 363.86097,358.235955 L361.926,358.235 L361.926316,362 L359.968421,362 L359.968421,352 L363.86097,352 Z M376.515789,352 L376.515789,353.741573 L373.673,353.741 L373.673684,362 L371.715789,362 L371.715,353.741 L368.873684,353.741573 L368.873684,352 L376.515789,352 Z M387,352 L383.526316,362 L380.936842,362 L378.410526,352 L387,352 Z M384.437,353.741 L380.808,353.741 L382.336,359.79 L384.437,353.741 Z M383.873684,354.275281 L382.326316,358.741573 L381.410526,354.275281 L383.873684,354.275281 Z M363.651626,353.685393 L361.926,353.685 L361.926,356.55 L363.651626,356.550562 C364.442821,356.550562 365.084211,355.909172 365.084211,355.117978 C365.084211,354.326783 364.442821,353.685393 363.651626,353.685393 Z" id="Net-IPTV"></path>
        </g>
    </g>
</svg>