<?xml version="1.0" encoding="UTF-8"?>
<svg width="60px" height="30px" viewBox="0 0 60 30" version="1.1" xmlns="http://www.w3.org/2000/svg" xmlns:xlink="http://www.w3.org/1999/xlink">
    <title>Set IPTV</title>
    <g id="Page-1" stroke="none" stroke-width="1" fill="none" fill-rule="evenodd">
        <g id="Dark" transform="translate(-327.000000, -586.000000)" fill="#FF0000">
            <path d="M385.715093,586 L385.715093,613.672414 L376.977,612.939 L376.977728,614.189655 L371.838102,616 L358.475073,614.448276 L363.614699,612.637931 L363.614,611.819 L354.877334,611.086207 L354.877334,608.241 L356.418334,608.241 L356.419222,609.658362 L384.173205,611.985948 L384.173205,587.686466 L356.419222,590.014052 L356.418334,593.5 L354.877334,593.5 L354.877334,588.586207 L385.715093,586 Z M364.385,611.883 L364.385,612.727 L376.206,614.099 L376.206,612.875 L364.385,611.883 Z M374.655862,595.512392 L377.65632,603.079068 L380.698938,595.512392 L382.490781,595.512392 L377.621185,607.251347 L372.864019,595.512392 L374.655862,595.512392 Z M356.786625,595.512392 L356.786625,606.431034 L355.149373,606.431034 L355.149373,595.512392 L356.786625,595.512392 Z M361.248664,595.512392 C362.157468,595.512392 362.843755,595.576037 363.307526,595.703327 C363.775982,595.830617 364.188223,596.071053 364.544249,596.424636 C365.167295,597.037513 365.478818,597.810682 365.478818,598.744141 C365.478818,599.743602 365.146214,600.535628 364.481007,601.120218 C363.815801,601.704809 362.918708,601.997104 361.78973,601.997104 L361.030832,601.997104 L361.030832,606.431034 L359.39358,606.431034 L359.39358,595.512392 L361.248664,595.512392 Z M372.646188,595.512392 L372.646188,597.061086 L370.158689,597.061086 L370.158689,606.431034 L368.521437,606.431034 L368.521437,597.061086 L366.026911,597.061086 L366.026911,595.512392 L372.646188,595.512392 Z M361.571899,597.032799 L361.030832,597.032799 L361.030832,600.469626 L361.642167,600.469626 C363.145909,600.469626 363.89778,599.887392 363.89778,598.722926 C363.89778,597.596175 363.122486,597.032799 361.571899,597.032799 Z M386.229056,586 L387,586 L387,613.672414 L386.229056,613.672414 L386.229056,586 Z M333.447148,598.306207 C333.14014,598.055172 332.833133,597.86931 332.526126,597.748621 C332.219119,597.627931 331.921706,597.567586 331.633887,597.567586 C331.269316,597.567586 330.971903,597.654483 330.741648,597.828276 C330.511393,598.002069 330.396265,598.228966 330.396265,598.508966 C330.396265,598.702069 330.453829,598.861379 330.568957,598.986897 C330.684084,599.112414 330.835189,599.221034 331.022272,599.312759 C331.209354,599.404483 331.420421,599.484138 331.655474,599.551724 C331.890526,599.61931 332.12318,599.691724 332.353435,599.768966 C333.274456,600.077931 333.948432,600.49069 334.375364,601.007241 C334.802296,601.523793 335.015762,602.197241 335.015762,603.027586 C335.015762,603.587586 334.92222,604.094483 334.735138,604.548276 C334.548056,605.002069 334.274627,605.39069 333.914854,605.714138 C333.55508,606.037586 333.113757,606.288621 332.590886,606.467241 C332.068014,606.645862 331.475587,606.735172 330.813603,606.735172 C329.441665,606.735172 328.170464,606.324828 327,605.504138 L328.20884,603.215862 C328.630975,603.592414 329.048312,603.872414 329.460853,604.055862 C329.873394,604.23931 330.281138,604.331034 330.684084,604.331034 C331.144595,604.331034 331.487579,604.224828 331.713038,604.012414 C331.938496,603.8 332.051225,603.558621 332.051225,603.288276 C332.051225,603.124138 332.022443,602.981724 331.964879,602.861034 C331.907315,602.740345 331.811376,602.62931 331.67706,602.527931 C331.542745,602.426552 331.367655,602.332414 331.15179,602.245517 C330.935926,602.158621 330.67449,602.062069 330.367483,601.955862 C330.002912,601.84 329.645537,601.712069 329.295357,601.572069 C328.945177,601.432069 328.633373,601.246207 328.359945,601.014483 C328.086517,600.782759 327.865856,600.49069 327.697961,600.138276 C327.530067,599.785862 327.44612,599.33931 327.44612,598.798621 C327.44612,598.257931 327.534864,597.767931 327.712352,597.328621 C327.889841,596.88931 328.139284,596.512759 328.460682,596.198966 C328.78208,595.885172 329.175433,595.641379 329.64074,595.467586 C330.106048,595.293793 330.62652,595.206897 331.202159,595.206897 C331.739421,595.206897 332.300668,595.281724 332.8859,595.431379 C333.471132,595.581034 334.03238,595.80069 334.569642,596.090345 L333.447148,598.306207 Z M343.473531,597.915172 L340.120439,597.915172 L340.120439,599.74 L343.286449,599.74 L343.286449,602.144138 L340.120439,602.144138 L340.120439,604.026897 L343.473531,604.026897 L343.473531,606.431034 L337.299812,606.431034 L337.299812,595.511034 L343.473531,595.511034 L343.473531,597.915172 Z M350.132431,597.915172 L350.132431,606.431034 L347.311804,606.431034 L347.311804,597.915172 L344.99486,597.915172 L344.99486,595.511034 L352.449375,595.511034 L352.449375,597.915172 L350.132431,597.915172 Z" id="Set-IPTV"></path>
        </g>
    </g>
</svg>