<?xml version="1.0" encoding="UTF-8"?>
<svg width="60px" height="20px" viewBox="0 0 60 20" version="1.1" xmlns="http://www.w3.org/2000/svg" xmlns:xlink="http://www.w3.org/1999/xlink">
    <title>Smart STB</title>
    <g id="Page-1" stroke="none" stroke-width="1" fill="none" fill-rule="evenodd">
        <g id="Dark" transform="translate(-571.000000, -469.000000)" fill="#FF0000">
            <path d="M623.434254,469 C625.457932,469 627.130508,469.534937 628.362192,470.664331 C629.597071,471.796654 630.24082,473.258317 630.24082,474.927811 C630.24082,476.039852 629.952013,477.062066 629.38288,477.952483 L629.265319,478.128796 L629.223063,478.186578 L629.318243,478.273776 L629.467473,478.4232 L629.610344,478.578414 L629.7468,478.739451 C630.587165,479.773654 631,481.05067 631,482.496915 C631,483.665188 630.717102,484.749764 630.149388,485.715922 C629.587145,486.672769 628.807541,487.440167 627.838726,487.993362 C627.159018,488.383406 626.293836,488.622723 625.210747,488.762749 L624.566588,488.843416 L624.006056,488.90737 L623.677129,488.940726 L623.382819,488.966664 L623.122108,488.985186 L622.893976,488.996297 L622.697403,489 L586.401919,489 C585.387183,489 584.557715,488.213769 584.499761,487.222381 L584.496527,487.111413 L584.496527,484.02672 L584.498416,483.956181 C583.695131,483.878087 583.067483,483.206667 583.067483,482.389944 C583.067483,481.520746 583.778377,480.816121 584.655309,480.816121 C585.013366,480.816121 585.343742,480.933592 585.609348,481.131772 L585.60922,479.924125 C585.22004,480.092916 584.789929,480.186592 584.337744,480.186592 C582.583879,480.186592 581.162091,478.777343 581.162091,477.038947 C581.162091,475.30055 582.583879,473.891301 584.337744,473.891301 C584.67095,473.891301 584.99217,473.942166 585.293932,474.03649 C585.465654,473.373785 585.758325,472.738536 586.165944,472.139056 C586.871747,471.101042 587.900108,470.310487 589.2033,469.764294 C590.380918,469.270732 591.857324,469.027597 593.670002,469.002224 L593.993385,469 L623.434254,469 Z M623.434254,470.888742 L594.022246,470.888447 L594.021644,470.889447 L593.970146,470.888447 C592.265713,470.888447 590.924123,471.093553 589.945377,471.503764 C588.966631,471.913975 588.233501,472.47757 587.745989,473.194548 C587.258477,473.911526 587.01472,474.673092 587.01472,475.479247 C587.01472,476.706313 587.491068,477.71579 588.443764,478.507676 C589.389018,479.299562 590.970642,479.934498 593.188637,480.412484 C594.543252,480.697848 595.406632,481.001048 595.778779,481.322083 C596.150926,481.643117 596.337,482.006957 596.337,482.413601 C596.337,482.841648 596.141623,483.217972 595.750868,483.542574 C595.403531,483.831109 594.925345,483.991407 594.316311,484.023466 L594.316311,484.023466 L594.198644,484.026447 L587.011644,484.02672 L587.011644,487.111413 L594.023487,487.111413 L594.394315,487.106842 C595.806044,487.073327 596.989497,486.855476 597.944674,486.453291 C598.986685,486.014543 599.797966,485.37069 600.378515,484.521731 C600.959064,483.672772 601.249338,482.745337 601.249338,481.739428 C601.249338,480.883335 601.031632,480.109284 600.596221,479.417275 C600.160809,478.725267 599.464894,478.14562 598.508477,477.678336 C597.552059,477.211052 595.968574,476.749118 593.758022,476.292535 C592.864869,476.114182 592.299206,475.921561 592.061032,475.714672 C591.815415,475.514917 591.692607,475.290193 591.692607,475.040499 L591.692607,475.040499 L591.692305,474.920614 C591.698105,474.588197 591.815966,474.174589 593.467747,474.174589 L593.467747,474.174589 L604.627192,474.174589 L604.627192,487.111413 L609.684668,487.111413 L609.684668,474.174589 L613.966644,474.174447 L613.966838,487.111413 L622.697403,487.111413 C623.06955,487.111413 623.825008,487.03764 624.963778,486.890094 C625.819716,486.779434 626.459808,486.602379 626.884056,486.358929 C627.568806,485.967932 628.108419,485.436767 628.502894,484.765433 C628.89737,484.094099 629.094608,483.337926 629.094608,482.496915 C629.094608,481.464094 628.817359,480.606483 628.26286,479.924083 C627.708361,479.241684 626.843119,478.760315 625.667135,478.479978 C626.441201,478.214395 627.029193,477.852908 627.431111,477.395516 C628.033989,476.709427 628.335428,475.886859 628.335428,474.927811 C628.335428,473.78433 627.913042,472.825282 627.068268,472.050666 C626.223495,471.27605 625.012157,470.888742 623.434254,470.888742 L623.434254,470.888742 Z M577.351307,478.927534 C578.754399,478.927534 579.891829,480.054933 579.891829,481.44565 C579.891829,482.836368 578.754399,483.963767 577.351307,483.963767 C575.948215,483.963767 574.810784,482.836368 574.810784,481.44565 C574.810784,480.054933 575.948215,478.927534 577.351307,478.927534 Z M621.636785,480.339056 C622.522494,480.339056 623.142119,480.484758 623.495658,480.776161 C623.849198,481.067564 624.025968,481.453028 624.025968,481.932552 C624.025968,482.448962 623.847337,482.860247 623.490076,483.166404 C623.132815,483.472562 622.518773,483.625641 621.647949,483.625641 L621.647949,483.625641 L619.068971,483.625641 L619.068971,480.339056 Z M572.587827,476.409417 C573.464759,476.409417 574.175653,477.114042 574.175653,477.98324 C574.175653,478.852439 573.464759,479.557063 572.587827,479.557063 C571.710894,479.557063 571,478.852439 571,477.98324 C571,477.114042 571.710894,476.409417 572.587827,476.409417 Z M578.939133,474.52083 C579.816066,474.52083 580.52696,475.225454 580.52696,476.094653 C580.52696,476.963851 579.816066,477.668476 578.939133,477.668476 C578.062201,477.668476 577.351307,476.963851 577.351307,476.094653 C577.351307,475.225454 578.062201,474.52083 578.939133,474.52083 Z M621.301852,474.175327 C622.068475,474.175327 622.606227,474.308118 622.915109,474.573701 C623.223991,474.839283 623.378432,475.208148 623.378432,475.680295 C623.378432,476.189328 623.223991,476.57848 622.915109,476.847752 C622.606227,477.117023 622.057311,477.251659 621.268359,477.251659 L621.268359,477.251659 L619.068971,477.251659 L619.068971,474.175327 Z" id="Smart-STB"></path>
        </g>
    </g>
</svg>