<?xml version="1.0" encoding="UTF-8"?>
<svg width="60px" height="60px" viewBox="0 0 60 60" version="1.1" xmlns="http://www.w3.org/2000/svg" xmlns:xlink="http://www.w3.org/1999/xlink">
    <title>Smart IPTV</title>
    <g id="Page-1" stroke="none" stroke-width="1" fill="none" fill-rule="evenodd">
        <g id="Dark" transform="translate(-449.000000, -693.000000)" fill="#FF0000">
            <path d="M505.831581,705.622874 L505.845019,705.774507 L508.980992,746.179218 C509.017226,746.646064 509.001623,747.115496 508.934468,747.578895 C508.440409,750.988154 505.319075,753.365936 501.922694,752.953552 L501.772683,752.933543 L453.936207,745.979319 C450.801857,745.490186 448.641648,742.586545 449.049383,739.45394 L449.070383,739.30694 L453.461504,711.081132 C453.947525,707.957023 456.383317,705.507616 459.486392,704.998562 L459.650321,704.973568 L498.111436,699.552978 C498.251223,699.533277 498.391588,699.517936 498.532328,699.506979 C502.229073,699.219166 505.465143,701.946017 505.831581,705.622874 Z M498.758378,702.419464 L498.637919,702.430733 L498.517868,702.445749 L460.056753,707.86634 C458.191567,708.129213 456.708944,709.556511 456.365562,711.40149 L456.343463,711.530878 L451.952342,739.756686 C451.709977,741.314594 452.744771,742.776542 454.27752,743.074023 L454.41535,743.097411 L502.191635,750.042563 C504.051492,750.312927 505.778037,749.022043 506.047981,747.159292 C506.076909,746.959674 506.088071,746.757977 506.08139,746.556576 L506.073032,746.405619 L502.937058,706.000909 C502.7706,703.856214 500.899741,702.252747 498.758378,702.419464 Z M458.350096,726.480572 L458.350096,740.600051 L455.919485,740.600051 L455.919485,726.480572 L458.350096,726.480572 Z M489.461916,726.480572 L495.052485,738.077572 L500.642727,726.480572 L503.073338,726.480572 L496.267627,740.600051 L493.837016,740.600051 L488.203485,728.914572 L483.627485,728.914572 L483.62845,740.600051 L481.197839,740.600051 L481.197485,728.914572 L474.878251,728.914965 L474.878251,726.480572 L489.461916,726.480572 Z M470.25366,726.480572 C472.539273,726.480572 474.392129,728.333427 474.392129,730.61904 C474.392129,732.904653 472.539273,734.757508 470.25366,734.757508 L463.211318,734.757508 L463.211318,740.600051 L460.780707,740.600051 L460.780707,726.480572 L470.25366,726.480572 Z M470.44764,728.428086 L463.211,728.428 L463.211318,732.809994 L470.44764,732.809994 C471.502002,732.809994 472.365805,731.994116 472.442154,730.959256 L472.44764,730.809994 L472.44764,730.428086 C472.44764,729.373725 471.631762,728.509921 470.596902,728.433572 L470.44764,728.428086 Z M499.18436,713.821729 L499.18436,714.795486 L496.266829,714.795093 L496.267627,719.664272 L495.295383,719.664272 L495.294829,714.795093 L492.37865,714.795486 L492.37865,713.821729 L499.18436,713.821729 Z M481.683961,713.821729 L485.086817,719.664272 L484.114572,719.664272 L483.546829,718.690093 L478.847829,718.690093 L478.281106,719.664272 L477.308862,719.664272 L480.711717,713.821729 L481.683961,713.821729 Z M470.503151,713.821729 L473.419829,717.994093 L476.336617,713.821729 L477.308862,713.821729 L477.308862,719.664272 L476.336617,719.664272 L476.335829,715.213093 L473.906006,718.690514 L472.933762,718.690514 L470.502829,715.212093 L470.503151,719.664272 L469.530907,719.664272 L469.530907,713.821729 L470.503151,713.821729 Z M490.188452,713.821729 C491.129587,713.821729 491.892527,714.584669 491.892527,715.525804 C491.892527,716.466938 491.129587,717.229879 490.188452,717.229879 L489.948039,717.229879 L491.406405,719.664272 L490.434161,719.664272 L488.975794,717.229879 L487.031305,717.229879 L487.031305,719.664272 L486.059061,719.664272 L486.059061,713.821729 L490.188452,713.821729 Z M466.611148,712.361093 C467.63784,712.361093 468.478975,713.15556 468.553321,714.163262 L468.558662,714.308607 L467.586418,714.308607 C467.586418,713.770816 467.150452,713.33485 466.612661,713.33485 L463.239074,713.33485 C462.686789,713.33485 462.239074,713.782565 462.239074,714.33485 L462.239074,714.769243 C462.239074,715.321528 462.686789,715.769243 463.239074,715.769243 L466.611148,715.769243 C467.68673,715.769243 468.558662,716.641175 468.558662,717.716757 C468.558662,718.79234 467.68673,719.664272 466.611148,719.664272 L463.214344,719.664272 C462.138761,719.664272 461.266829,718.79234 461.266829,717.716757 L462.239074,717.716757 C462.239074,718.254549 462.67504,718.690514 463.212831,718.690514 L466.612661,718.690514 C467.150452,718.690514 467.586418,718.254549 467.586418,717.716757 C467.586418,717.178966 467.150452,716.743 466.612661,716.743 L463.266829,716.743 C462.16226,716.743 461.266829,715.84757 461.266829,714.743 L461.266829,714.361093 C461.266829,713.256523 462.16226,712.361093 463.266829,712.361093 L466.611148,712.361093 Z M481.197829,714.656093 L479.415829,717.716093 L482.978829,717.716093 L481.197829,714.656093 Z M490.189965,714.795486 L487.031305,714.795486 L487.031305,716.256122 L490.189965,716.256122 C490.593309,716.256122 490.920283,715.929147 490.920283,715.525804 C490.920283,715.156072 490.645534,714.850512 490.289065,714.802153 L490.189965,714.795486 Z M484.105268,699.577692 C484.111462,699.618922 484.114572,699.660557 484.114572,699.702249 C484.114572,700.26198 483.705141,700.737517 483.151621,700.820674 L475.355079,701.991975 C474.897186,702.060766 474.470224,701.745336 474.401433,701.287442 C474.395239,701.246212 474.392129,701.204578 474.392129,701.162885 C474.392129,700.603154 474.80156,700.127618 475.355079,700.04446 L483.151621,698.873159 C483.609515,698.804368 484.036477,699.119799 484.105268,699.577692 Z M486.051561,696.668154 C486.056556,696.705554 486.059061,696.743245 486.059061,696.780978 C486.059061,697.338448 485.646437,697.809837 485.093872,697.883627 L472.440584,699.573357 C471.973978,699.635668 471.545206,699.307922 471.482895,698.841316 C471.477901,698.803915 471.475395,698.766225 471.475395,698.728492 C471.475395,698.171022 471.888019,697.699633 472.440584,697.625843 L485.093872,695.936113 C485.560478,695.873802 485.98925,696.201548 486.051561,696.668154 Z M487.996893,693.752941 C488.001326,693.788357 488.00355,693.824014 488.00355,693.859706 C488.00355,694.416029 487.589349,694.885319 487.037335,694.954428 L469.524877,697.146891 C469.053893,697.205856 468.624284,696.871848 468.565319,696.400864 C468.560886,696.365448 468.558662,696.329791 468.558662,696.294099 C468.558662,695.737776 468.972863,695.268486 469.524877,695.199377 L487.037335,693.006914 C487.50832,692.947949 487.937928,693.281957 487.996893,693.752941 Z" id="Smart-IPTV"></path>
        </g>
    </g>
</svg>