<?xml version="1.0" encoding="UTF-8"?>
<svg width="60px" height="40px" viewBox="0 0 60 40" version="1.1" xmlns="http://www.w3.org/2000/svg" xmlns:xlink="http://www.w3.org/1999/xlink">
    <title>Stebmu</title>
    <g id="Page-1" stroke="none" stroke-width="1" fill="none" fill-rule="evenodd">
        <g id="Dark" transform="translate(-449.000000, -581.000000)" fill="#FF0000">
            <path d="M457.450704,581 L459.748034,585.738319 L464.885019,586.498144 L461.167862,590.186412 L462.045364,595.394329 L457.450704,592.935484 L452.856045,595.394329 L453.733547,590.186412 L451.535211,588.005161 L451.535211,614.548387 C451.535211,615.480627 452.263628,616.239687 453.172709,616.267999 L453.225352,616.268817 L504.774648,616.268817 C505.690475,616.268817 506.436171,615.527347 506.463984,614.601974 L506.464789,614.548387 L506.464789,586.591398 C506.464789,585.641231 505.708087,584.870968 504.774648,584.870968 L460.830986,584.870968 L458.71831,582.290323 L507.309859,582.290323 C508.243298,582.290323 509,583.060585 509,584.010753 L509,619.27957 C509,620.229737 508.243298,621 507.309859,621 L450.690141,621 C449.756702,621 449,620.229737 449,619.27957 L449,584.010753 C449,583.060585 449.756702,582.290323 450.690141,582.290323 L456.825141,582.290323 L457.450704,581 Z M479,616.913978 C478.183241,616.913978 477.521127,617.587958 477.521127,618.419355 C477.521127,619.250751 478.183241,619.924731 479,619.924731 C479.816759,619.924731 480.478873,619.250751 480.478873,618.419355 C480.478873,617.587958 479.816759,616.913978 479,616.913978 Z M478.788732,617.129032 C479.372132,617.129032 479.84507,617.610447 479.84507,618.204301 C479.84507,618.798156 479.372132,619.27957 478.788732,619.27957 C478.205333,619.27957 477.732394,618.798156 477.732394,618.204301 C477.732394,617.610447 478.205333,617.129032 478.788732,617.129032 Z M467.49315,602.290323 C468.108074,602.290323 468.576926,602.403973 468.899707,602.631274 C469.222487,602.858574 469.414514,603.220189 469.475788,603.716118 L468.074155,603.797685 C468.036953,603.582347 467.958719,603.425738 467.839455,603.327858 C467.72019,603.229977 467.555517,603.181037 467.345437,603.181037 C467.172558,603.181037 467.042351,603.21747 466.954817,603.290337 C466.867284,603.363203 466.823517,603.45184 466.823517,603.556246 C466.823517,603.632375 466.859625,603.700892 466.93184,603.761795 C466.996865,603.820368 467.144913,603.87519 467.375984,603.926261 L467.430782,603.937981 C467.52363,603.957867 467.612716,603.977788 467.698039,603.997741 L467.863668,604.037692 C467.943974,604.05769 468.020518,604.077721 468.093299,604.097786 L468.233844,604.137959 L468.233844,604.137959 L468.364355,604.178221 C468.552598,604.238681 468.706976,604.29944 468.827491,604.360499 C469.108693,604.50297 469.313303,604.679699 469.441321,604.890686 C469.569339,605.101673 469.633348,605.337674 469.633348,605.598689 C469.633348,605.905382 469.548003,606.188148 469.377312,606.446988 C469.206622,606.705828 468.968092,606.902134 468.661724,607.035904 C468.355356,607.169674 467.969114,607.236559 467.502997,607.236559 C466.684557,607.236559 466.117777,607.07995 465.802655,606.766732 C465.487534,606.453514 465.309184,606.055466 465.267606,605.572588 L466.682369,605.484495 C466.713006,605.712883 466.775373,605.886893 466.869472,606.006525 C467.022656,606.200112 467.24149,606.296905 467.525975,606.296905 C467.738244,606.296905 467.901823,606.247421 468.016711,606.148452 C468.131598,606.049484 468.189042,605.934746 468.189042,605.804239 C468.189042,605.680256 468.134334,605.569325 468.024917,605.471444 C467.921936,605.379321 467.691017,605.292015 467.332159,605.209526 L467.263374,605.194116 C466.611248,605.048382 466.146225,604.854796 465.868306,604.613357 C465.588198,604.371918 465.448144,604.064138 465.448144,603.690016 C465.448144,603.444227 465.519812,603.212032 465.663148,602.993432 C465.806485,602.774832 466.022037,602.602997 466.309804,602.477927 C466.597571,602.352857 466.992019,602.290323 467.49315,602.290323 Z M471.484686,602.37189 L471.484686,603.690016 L472.219969,603.690016 L472.219969,604.659035 L471.484686,604.659035 L471.484686,605.889069 C471.484686,606.036977 471.49891,606.134858 471.527358,606.182711 C471.571125,606.256665 471.647717,606.293642 471.757134,606.293642 C471.85561,606.293642 471.993475,606.265365 472.170731,606.208812 L472.269206,607.125628 C471.938767,607.197407 471.630211,607.233296 471.343538,607.233296 C471.01091,607.233296 470.765815,607.190881 470.608255,607.106052 C470.450694,607.021222 470.334165,606.892345 470.258667,606.719423 C470.183169,606.5465 470.14542,606.266453 470.14542,605.879281 L470.14542,604.659035 L469.653043,604.659035 L469.653043,603.690016 L470.14542,603.690016 L470.14542,603.053792 L471.484686,602.37189 Z M473.792293,602.37189 L473.792293,604.029336 C473.925782,603.890128 474.077324,603.785722 474.246921,603.716118 C474.416517,603.646514 474.604168,603.611712 474.809872,603.611712 C475.23441,603.611712 475.585639,603.763427 475.863559,604.066857 C476.141478,604.370287 476.280438,604.805856 476.280438,605.373564 C476.280438,605.752036 476.216976,606.085374 476.090052,606.373578 C475.963128,606.661782 475.787514,606.87712 475.563209,607.01959 C475.338904,607.162061 475.08998,607.233296 474.816437,607.233296 C474.582284,607.233296 474.367827,607.183269 474.173064,607.083213 C474.026445,607.004908 473.866696,606.858087 473.693817,606.64275 L473.693817,607.154992 L472.44318,607.154992 L472.44318,602.37189 L473.792293,602.37189 Z M490.38868,603.690016 L490.38868,605.595427 C490.38868,605.812939 490.429164,605.967373 490.510133,606.058728 C490.591102,606.150084 490.704895,606.195761 490.851514,606.195761 C491.011263,606.195761 491.142017,606.134858 491.243775,606.013051 C491.345532,605.891244 491.396411,605.672644 491.396411,605.35725 L491.396411,603.690016 L492.732394,603.690016 L492.732394,607.154992 L491.485039,607.154992 L491.485039,606.593809 C491.29903,606.824373 491.11138,606.988595 490.922088,607.086475 C490.732797,607.184356 490.500285,607.233296 490.224554,607.233296 C489.856913,607.233296 489.568599,607.123996 489.359612,606.905396 C489.150625,606.686796 489.046132,606.350195 489.046132,605.895594 L489.046132,603.690016 L490.38868,603.690016 Z M482.392477,602.37189 L482.392477,603.393111 L479.897767,603.393111 L479.897767,604.153318 L482.211939,604.153318 L482.211939,605.128862 L479.897767,605.128862 L479.897767,606.071779 L482.464693,606.071779 L482.464693,607.154992 L478.407506,607.154992 L478.407506,602.37189 L482.392477,602.37189 Z M487.490221,603.611712 C487.864427,603.611712 488.156571,603.722099 488.366652,603.942875 C488.576733,604.16365 488.681773,604.508951 488.681773,604.978778 L488.681773,607.154992 L487.342508,607.154992 L487.342508,605.181065 C487.342508,605.024456 487.311871,604.908087 487.250597,604.831957 C487.160875,604.712325 487.04927,604.652509 486.915781,604.652509 C486.75822,604.652509 486.631296,604.709063 486.535009,604.822169 C486.438722,604.935276 486.390579,605.116899 486.390579,605.367038 L486.390579,607.154992 L485.051313,607.154992 L485.050989,605.197379 L485.050989,605.197379 L485.048395,605.110373 C485.044505,605.030619 485.036724,604.972615 485.025053,604.936363 C484.996605,604.849358 484.947367,604.779211 484.87734,604.72592 C484.807313,604.672629 484.72525,604.645984 484.631152,604.645984 C484.477968,604.645984 484.352138,604.703625 484.253663,604.818907 C484.155187,604.934188 484.105949,605.123424 484.105949,605.386614 L484.105949,607.154992 L482.766684,607.154992 L482.766684,603.690016 L484.014039,603.690016 L484.014039,604.195733 C484.193483,603.984746 484.374568,603.834662 484.557295,603.745482 C484.740022,603.656302 484.960497,603.611712 485.218721,603.611712 C485.496641,603.611712 485.716569,603.660652 485.878507,603.758533 C486.040444,603.856413 486.172839,604.002147 486.275691,604.195733 C486.485772,603.96952 486.677252,603.81563 486.850131,603.734062 C487.02301,603.652495 487.236373,603.611712 487.490221,603.611712 Z M474.399558,604.603569 C474.217925,604.603569 474.069665,604.670454 473.954777,604.804224 C473.839889,604.937995 473.782445,605.140825 473.782445,605.412716 C473.782445,605.710708 473.838795,605.926589 473.951495,606.06036 C474.064194,606.19413 474.206984,606.261015 474.379863,606.261015 C474.539612,606.261015 474.673647,606.195218 474.78197,606.063622 C474.890293,605.932027 474.944455,605.710708 474.944455,605.399665 C474.944455,605.125599 474.891388,604.9244 474.785253,604.796068 C474.679118,604.667735 474.550553,604.603569 474.399558,604.603569 Z M455.573803,584.870968 L453.225352,584.870968 C452.400123,584.870968 451.713029,585.472995 451.564815,586.269124 L455.153375,585.738319 L455.573803,584.870968 Z" id="Stebmu"></path>
        </g>
    </g>
</svg>