<?xml version="1.0" encoding="UTF-8"?>
<svg width="60px" height="44px" viewBox="0 0 60 44" version="1.1" xmlns="http://www.w3.org/2000/svg" xmlns:xlink="http://www.w3.org/1999/xlink">
    <title>Tivimate</title>
    <g id="Page-1" stroke="none" stroke-width="1" fill="none" fill-rule="evenodd">
        <g id="Dark" transform="translate(-571.000000, -335.000000)" fill="#FF0000">
            <path d="M584.585792,335 L584.645,345.656 L592.324535,345.65625 L592.324535,353.21875 L584.688,353.218 L584.757764,365.421875 C584.670816,368.325032 585.587951,370.11416 587.509168,370.789259 C589.430385,371.464358 591.194355,371.154706 592.801077,369.860304 L595.544004,377.003746 C593.218669,378.256297 590.813169,378.919413 588.327507,378.993093 L587.860505,379 L587.860505,379 C580.448256,379 574.439441,372.991185 574.439441,365.578936 L574.439,353.218 L571,353.21875 L571,345.65625 L574.439,345.656 L574.439441,335 L584.585792,335 Z M596.65043,351.124814 L609.221296,379 L619.054405,379 L631,346.786696 L621.640719,346.786696 L613.825215,365.587274 L596.65043,351.124814 Z" id="Tivimate"></path>
        </g>
    </g>
</svg>